<?xml version="1.0" encoding="utf-8"?>
<!-- Generator: Adobe Illustrator 15.1.0, SVG Export Plug-In . SVG Version: 6.00 Build 0)  -->
<!DOCTYPE svg PUBLIC "-//W3C//DTD SVG 1.1//EN" "http://www.w3.org/Graphics/SVG/1.1/DTD/svg11.dtd">
<svg version="1.1" id="Calque_1" xmlns="http://www.w3.org/2000/svg" xmlns:xlink="http://www.w3.org/1999/xlink" x="0px" y="0px"
	 width="283.46px" height="283.46px" viewBox="0 0 283.46 283.46" enable-background="new 0 0 283.46 283.46" xml:space="preserve">
<g id="Calque_1_1_">
</g>
<g id="M">
</g>
<g id="R">
</g>
<g id="E">
</g>
<g id="H">
</g>
<g>
	<path d="M81.897,206.815l-0.001-0.004c-2.395,1.291-5.08,2.033-8.058,2.231l-6.342,35.879c-2.027-0.377-5.405-0.976-6.747-1.394
		c2.082-11.802,4.163-23.603,6.243-35.401c-1.86-0.779-3.396-2.039-4.605-3.774c-2.258,12.792-4.513,25.583-6.77,38.375
		c-1.838-0.324-3.677-0.647-5.515-0.974c2.877-16.312,5.754-32.625,8.628-48.938c0.019-0.144,0.034-0.287,0.153-0.283
		c0.226,0.04,0.452,0.08,0.679,0.12c0.043-0.498,0.109-1.007,0.185-1.52c-0.232-0.041-0.464-0.082-0.696-0.123
		c0.429-2.439,0.86-4.881,1.288-7.321c0.239,0.042,0.478,0.084,0.716,0.126c0.092-0.509,0.181-0.998,0.272-1.503
		c-0.241-0.042-0.48-0.085-0.721-0.127c2.894-16.411,5.787-32.827,8.681-49.24c-0.533-0.095-1.068-0.188-1.604-0.283
		c-2.895,16.413-5.788,32.827-8.682,49.241c-2.908-0.514-5.818-1.025-8.725-1.538c2.893-16.413,5.788-32.829,8.683-49.241
		c-0.536-0.093-1.071-0.188-1.608-0.282c-0.812,4.613-1.625,9.227-2.438,13.838c-2.939-0.518-5.883-1.037-8.827-1.555
		c0.814-4.613,1.63-9.228,2.443-13.842c-0.468-0.082-0.937-0.165-1.403-0.247c-0.839,4.598-1.659,9.221-2.489,13.831
		c-2.912-0.514-5.824-1.027-8.736-1.54c0.813-4.613,1.627-9.227,2.44-13.84c-0.535-0.094-1.071-0.188-1.605-0.283
		c-2.893,16.415-5.787,32.828-8.683,49.24c-2.916-0.563-6.078-0.957-8.807-1.655c2.888-16.379,5.776-32.761,8.666-49.14
		c-0.503-0.09-1.004-0.178-1.507-0.266c-2.894,16.412-5.788,32.828-8.681,49.24c-1.847-0.379-3.944-0.58-5.6-1.09
		c2.888-16.381,5.777-32.762,8.665-49.141c-1.671-0.295-3.341-0.59-5.013-0.885l-0.004,0.016
		c-2.894,16.405-5.787,32.816-8.681,49.225l-0.167-0.028c-0.08,0.504-0.16,1.011-0.238,1.509l0.141,0.023
		c-0.396,2.254-0.795,4.508-1.191,6.762c-3.739,24.451-5.61,40.545-5.61,48.267c0,2.636,0.308,5.222,0.901,7.763
		c0.137-0.777,0.273-1.557,0.412-2.334c1.87,0.33,3.741,0.66,5.615,0.99c-0.431,2.438-0.861,4.881-1.291,7.32
		c-0.992-0.174-1.982-0.35-2.975-0.523c0.249,0.601,0.516,1.198,0.801,1.795c0.631,0.111,1.262,0.223,1.893,0.334
		c-0.143,0.817-0.286,1.636-0.431,2.451c0.379,0.654,0.785,1.305,1.207,1.953c0.243-1.38,0.486-2.76,0.73-4.14
		c3.334,0.588,6.668,1.176,10.002,1.764c-0.393-0.069-0.787-0.138-1.181-0.207c-0.68,3.854-1.358,7.71-2.038,11.565
		c0.467,0.445,0.938,0.887,1.422,1.314c0.74-4.199,1.48-8.398,2.221-12.599c2.941,0.519,5.883,1.037,8.825,1.556v-0.001
		c7.228,1.275,14.455,2.55,21.683,3.824c-0.389-0.067-0.775-0.137-1.164-0.205c-1.207,6.847-2.414,13.693-3.622,20.541
		c0.528,0.104,1.065,0.202,1.603,0.3c1.209-6.854,2.416-13.705,3.625-20.559c1.838,0.324,3.678,0.648,5.516,0.973
		c-1.199,6.803-2.398,13.604-3.598,20.404c1.691,0.195,3.424,0.347,5.192,0.46c1.171-6.646,2.344-13.291,3.515-19.937
		c2.294,0.435,4.844,0.924,6.764,1.273l-3.345,18.921c0.193,0.001,0.381,0.011,0.576,0.011c21.603,0,39.326-6.623,53.182-19.845
		c15.255-14.646,25.968-37.485,31.794-68.231c1.289-6.986,2.068-12.03,2.327-15.133c-27.935,1.553-45.917,2.59-53.933,3.103
		C94.919,191.323,89.958,202.294,81.897,206.815z M58.737,183.406c-0.431,2.44-0.861,4.881-1.292,7.321
		c-2.907-0.515-5.816-1.024-8.724-1.539c0.491-2.396,0.762-5.104,1.391-7.303C52.987,182.394,55.863,182.899,58.737,183.406z
		 M45.153,148.438c0.017-0.142,0.034-0.287,0.153-0.283c2.908,0.515,5.816,1.025,8.726,1.539c-2.305,13.07-4.61,26.142-6.915,39.211
		c-2.941-0.518-5.884-1.036-8.825-1.557C40.579,174.378,42.866,161.408,45.153,148.438z M46.85,190.41
		c-0.812,4.613-1.625,9.228-2.438,13.84c-2.941-0.519-5.884-1.035-8.825-1.557c0.873-4.566,1.527-9.449,2.538-13.822
		C41.034,189.386,43.943,189.897,46.85,190.41z M35.017,146.343c2.906,0.511,5.812,1.023,8.719,1.535h0.002
		c-2.346,13.072-4.672,26.172-6.979,39.297c-2.672-0.691-5.812-1.053-8.655-1.623C30.407,172.483,32.713,159.412,35.017,146.343z
		 M36.509,188.585c-0.811,4.613-1.619,9.229-2.43,13.844c-2.893-0.512-5.789-1.021-8.682-1.532
		c0.812-4.612,1.626-9.226,2.439-13.839C30.729,187.568,33.618,188.078,36.509,188.585z M19.064,176.412
		c2.907,0.512,5.816,1.026,8.724,1.539c-0.429,2.438-0.858,4.879-1.289,7.319c-2.942-0.521-5.884-1.037-8.825-1.556
		C18.165,181.319,18.435,178.609,19.064,176.412z M11.844,175.138c1.873,0.33,3.742,0.66,5.616,0.99
		c-0.431,2.44-0.86,4.881-1.293,7.32c-1.87-0.33-3.743-0.66-5.613-0.988C10.981,180.019,11.414,177.578,11.844,175.138z
		 M1.622,233.104c2.872-16.28,5.742-32.562,8.611-48.841c0.018-0.145,0.034-0.287,0.154-0.282c1.839,0.323,3.677,0.647,5.516,0.974
		c-2.894,16.412-5.788,32.826-8.682,49.239C5.376,233.815,3.277,233.615,1.622,233.104z M15.994,244.841
		c-2.942-0.519-5.883-1.038-8.823-1.557c0.489-2.396,0.76-5.104,1.389-7.304c2.909,0.513,5.817,1.024,8.727,1.539
		C16.854,239.96,16.424,242.399,15.994,244.841z M8.742,234.359c2.873-16.279,5.742-32.561,8.612-48.84
		c0.016-0.145,0.033-0.286,0.153-0.283c2.909,0.514,5.817,1.025,8.726,1.538c-2.894,16.414-5.789,32.827-8.683,49.24
		C14.635,235.451,11.472,235.056,8.742,234.359z M17.598,245.123c2.306-13.068,4.611-26.142,6.915-39.211
		c2.896,0.512,5.791,1.021,8.688,1.531c-2.297,13.084-4.596,26.162-6.916,39.211C23.388,246.145,20.493,245.632,17.598,245.123z
		 M27.786,246.919c2.289-12.969,4.575-25.939,6.863-38.91c0.015-0.146,0.034-0.287,0.152-0.283c2.909,0.514,5.816,1.025,8.726,1.539
		c-2.305,13.07-4.611,26.141-6.914,39.211C33.671,247.958,30.729,247.438,27.786,246.919z M46.941,250.298
		c-2.908-0.514-5.816-1.025-8.724-1.539c0.49-2.396,0.762-5.104,1.391-7.303c2.874,0.508,5.749,1.014,8.625,1.521
		C47.804,245.417,47.37,247.856,46.941,250.298z M39.773,239.934c2.876-16.313,5.753-32.626,8.63-48.94
		c0.015-0.143,0.033-0.285,0.152-0.281c2.875,0.507,5.75,1.014,8.626,1.521c-2.896,16.414-5.79,32.827-8.684,49.241
		C45.59,240.96,42.681,240.446,39.773,239.934z M54.063,251.554c-1.839-0.325-3.678-0.648-5.516-0.975
		c0.431-2.439,0.859-4.879,1.29-7.318c1.839,0.324,3.679,0.646,5.516,0.973C54.925,246.673,54.493,249.113,54.063,251.554z
		 M65.937,253.753c-1.997-0.375-5.243-1.03-6.758-1.299c0.429-2.439,0.858-4.881,1.289-7.32c1.518,0.268,4.768,0.923,6.763,1.298
		L65.937,253.753z"/>
	<path d="M135.83,38.384c-7.241-3.62-15.909-5.82-25.997-6.596c-1.568,0-3.129,0.05-4.685,0.124l-6.041,34.174
		c-2.146-0.387-5.549-0.971-6.828-1.368c1.894-10.733,3.786-21.469,5.679-32.203c-1.815,0.224-3.621,0.501-5.42,0.827
		c-1.796,10.192-3.592,20.385-5.39,30.575c-1.838-0.324-3.677-0.648-5.517-0.973c1.665-9.443,3.33-18.888,4.995-28.332
		c-0.579,0.144-1.155,0.298-1.733,0.453c-1.623,9.198-3.244,18.396-4.867,27.596c-2.908-0.514-5.814-1.025-8.723-1.539
		c1.35-7.655,2.699-15.312,4.049-22.969c-0.594,0.226-1.187,0.454-1.777,0.692c-1.811,10.273-3.623,20.547-5.435,30.819
		c-2.94-0.52-5.883-1.037-8.824-1.557c1.449-8.218,2.897-16.436,4.347-24.653c-0.574,0.303-1.147,0.611-1.72,0.926
		c-1.392,7.845-2.778,15.695-4.159,23.555c-2.669-0.692-5.811-1.055-8.656-1.623c0.921-5.225,1.844-10.449,2.765-15.674
		c-0.644,0.458-1.276,0.922-1.899,1.391c-0.304,1.726-0.607,3.45-0.912,5.175c-1.451-0.28-2.961-0.519-4.449-0.773
		c-0.479,0.429-0.965,0.853-1.428,1.289c1.871,0.329,3.74,0.659,5.61,0.988c-0.43,2.441-0.861,4.882-1.291,7.321
		c-2.941-0.519-5.883-1.038-8.824-1.556c0.173-0.841,0.317-1.721,0.46-2.603c-0.67,0.743-1.32,1.499-1.952,2.264l-0.013,0.073
		L37.151,64.2c-0.37,0.45-0.736,0.901-1.093,1.358c0.29,0.051,0.581,0.102,0.871,0.153c-2.894,16.414-5.789,32.827-8.684,49.242
		c-1.845-0.38-3.942-0.58-5.598-1.092c2.214-12.554,4.427-25.108,6.64-37.662c-1.327,2.626-2.488,5.343-3.458,8.161
		c-3.241,9.423-6.593,22.477-10.052,39.146c10.416,1.836,20.832,3.673,31.248,5.51c7.775,1.371,15.55,2.742,23.324,4.112
		c0.1-0.533,0.201-1.074,0.299-1.601c-0.359-0.062-0.719-0.126-1.078-0.189c0.432-2.44,0.861-4.882,1.292-7.321
		c0.386,0.067,0.772,0.136,1.159,0.204c0.094-0.497,0.19-1.013,0.283-1.501c-0.393-0.069-0.785-0.139-1.177-0.208
		c2.876-16.313,5.752-32.626,8.628-48.938c0.016-0.145,0.034-0.288,0.155-0.283c1.805,0.318,3.608,0.637,5.415,0.954
		c-1.486,8.424-2.973,16.85-4.457,25.274c1.84-1.771,3.832-3.085,5.973-3.96c1.182-6.704,2.363-13.409,3.545-20.112
		c0.018-0.145,0.033-0.287,0.153-0.282c1.412,0.248,4.658,0.868,6.74,1.253l-3.158,17.865c7.877,0.313,11.831,6.888,11.831,19.762
		c0,2.325-0.133,4.788-0.39,7.369l52.385-1.55l5.819-38.414C162.469,60.761,153.16,46.404,135.83,38.384z M59.153,69.63
		c2.909,0.514,5.816,1.027,8.724,1.54c-0.813,4.612-1.627,9.226-2.441,13.839c-2.941-0.52-5.882-1.037-8.823-1.555
		C57.486,78.884,58.141,74.001,59.153,69.63z M48.862,67.817c2.892,0.51,5.782,1.021,8.672,1.528
		c-0.81,4.612-1.619,9.227-2.43,13.841c-2.891-0.511-5.787-1.021-8.682-1.529C47.236,77.044,48.049,72.431,48.862,67.817z
		 M26.69,123.778c-1.873-0.33-3.744-0.66-5.617-0.99c0.43-2.44,0.862-4.88,1.292-7.32c1.871,0.33,3.743,0.66,5.617,0.99
		C27.551,118.896,27.12,121.338,26.69,123.778z M37.02,125.599c-2.941-0.518-5.882-1.037-8.825-1.555
		c0.492-2.396,0.763-5.105,1.392-7.303c2.908,0.512,5.815,1.025,8.725,1.537C37.881,120.72,37.45,123.159,37.02,125.599z
		 M29.769,115.118c2.869-16.281,5.741-32.561,8.611-48.841c0.017-0.143,0.033-0.286,0.154-0.282
		c2.907,0.514,5.815,1.025,8.725,1.539c-2.894,16.414-5.787,32.827-8.683,49.24C35.66,116.208,32.496,115.815,29.769,115.118z
		 M38.624,125.882c2.306-13.068,4.609-26.142,6.914-39.211c2.896,0.51,5.791,1.021,8.688,1.532
		c-2.296,13.084-4.595,26.162-6.916,39.211C44.415,126.902,41.519,126.393,38.624,125.882z M48.812,127.679
		c2.287-12.969,4.575-25.94,6.861-38.911c0.016-0.144,0.034-0.287,0.153-0.283c2.908,0.514,5.816,1.026,8.727,1.539
		c-2.307,13.07-4.611,26.142-6.916,39.212C54.696,128.716,51.754,128.196,48.812,127.679z M67.968,131.057
		c-2.909-0.514-5.818-1.026-8.726-1.538c0.491-2.395,0.763-5.104,1.391-7.303c2.876,0.506,5.752,1.013,8.626,1.52
		C68.828,126.175,68.396,128.616,67.968,131.057z M69.523,122.231c-2.907-0.513-5.817-1.025-8.725-1.539
		c2.877-16.312,5.755-32.625,8.63-48.939c0.016-0.144,0.032-0.286,0.151-0.283c2.874,0.507,5.75,1.014,8.627,1.521
		C75.312,89.404,72.417,105.818,69.523,122.231z M78.472,71.485c-2.908-0.512-5.818-1.025-8.726-1.537
		c0.491-2.395,0.762-5.105,1.392-7.305c2.875,0.508,5.75,1.016,8.625,1.521C79.332,66.605,78.901,69.046,78.472,71.485z
		 M85.592,72.743c-1.839-0.324-3.677-0.648-5.515-0.973c0.428-2.441,0.859-4.882,1.289-7.322c1.838,0.323,3.678,0.647,5.517,0.971
		C86.453,67.86,86.021,70.303,85.592,72.743z M97.547,74.915c-2.109-0.389-5.398-1.017-6.841-1.271
		c0.43-2.439,0.86-4.88,1.291-7.321c1.443,0.254,4.735,0.884,6.844,1.272L97.547,74.915z"/>
	<path d="M33.888,263.919c-2.939-0.519-5.883-1.035-8.824-1.555c0.814-4.613,1.627-9.227,2.439-13.841
		c-0.466-0.082-0.935-0.164-1.402-0.246c-0.838,4.599-1.659,9.22-2.489,13.83c-2.201-0.388-4.403-0.776-6.604-1.165
		c1.929,1.539,3.992,2.934,6.17,4.205c1.99,1.162,4.076,2.221,6.273,3.16c1.186,0.209,2.369,0.418,3.555,0.626
		c-0.043,0.241-0.086,0.483-0.128,0.726c0.511,0.185,1.041,0.348,1.563,0.521c1.164-6.604,2.328-13.211,3.493-19.815
		c-0.533-0.096-1.069-0.188-1.604-0.283C35.517,254.694,34.702,259.307,33.888,263.919z"/>
</g>
</svg>
