<?xml version="1.0" encoding="utf-8"?>
<!-- Generator: Adobe Illustrator 15.1.0, SVG Export Plug-In . SVG Version: 6.00 Build 0)  -->
<!DOCTYPE svg PUBLIC "-//W3C//DTD SVG 1.1//EN" "http://www.w3.org/Graphics/SVG/1.1/DTD/svg11.dtd">
<svg version="1.1" id="Calque_1" xmlns="http://www.w3.org/2000/svg" xmlns:xlink="http://www.w3.org/1999/xlink" x="0px" y="0px"
	 width="283.46px" height="283.46px" viewBox="0 0 283.46 283.46" enable-background="new 0 0 283.46 283.46" xml:space="preserve">
<g id="Calque_1_1_">
</g>
<g id="M">
</g>
<g id="R">
</g>
<g>
	<path d="M78.837,87.672c-16.348-2.578-32.687-5.162-49.012-7.756l-0.253,1.605c16.329,2.578,32.669,5.17,49.014,7.77L78.837,87.672
		z"/>
	<path d="M78.543,89.568c-16.349-2.578-32.689-5.162-49.017-7.756l-0.178,1.131c16.33,2.578,32.671,5.17,49.018,7.771L78.543,89.568
		z"/>
	<path d="M78.103,92.414c-16.352-2.578-32.694-5.162-49.023-7.757l-0.142,0.896c16.333,2.579,32.676,5.171,49.024,7.772
		L78.103,92.414z"/>
	<path d="M76.672,101.664c-16.36-2.579-32.712-5.165-49.05-7.761l-0.141,0.894c16.342,2.58,32.692,5.174,49.05,7.776L76.672,101.664
		z"/>
	<path d="M76.488,102.851c-16.361-2.579-32.714-5.165-49.053-7.762l-0.178,1.131c16.343,2.58,32.694,5.175,49.054,7.777
		L76.488,102.851z"/>
	<path d="M76.269,104.273c-16.363-2.58-32.717-5.166-49.057-7.762l-0.253,1.604c16.345,2.581,32.698,5.175,49.059,7.778
		L76.269,104.273z"/>
	<path d="M75.975,106.171c-16.364-2.58-32.72-5.167-49.062-7.763l-0.178,1.131c16.346,2.581,32.7,5.176,49.062,7.778L75.975,106.171
		z"/>
	<path d="M75.534,109.018c-16.366-2.581-32.725-5.168-49.069-7.765l-0.141,0.894c16.348,2.581,32.706,5.176,49.069,7.779
		L75.534,109.018z"/>
	<path d="M74.104,118.267c-16.375-2.582-32.741-5.17-49.095-7.769l-0.107,0.686c16.365,2.592,32.73,5.184,49.096,7.775
		L74.104,118.267z"/>
	<path d="M73.923,119.434c-16.365-2.593-32.73-5.185-49.097-7.776l-0.183,1.158c16.357,2.583,32.726,5.179,49.1,7.784
		L73.923,119.434z"/>
	<path d="M73.7,120.877c-16.378-2.582-32.747-5.171-49.103-7.77l-0.253,1.604c16.359,2.583,32.729,5.18,49.104,7.785L73.7,120.877z"
		/>
	<path d="M73.406,122.774c-16.379-2.583-32.75-5.172-49.107-7.771l-0.145,0.92c16.37,2.594,32.739,5.186,49.108,7.778
		L73.406,122.774z"/>
	<path d="M72.966,125.619c-16.381-2.583-32.755-5.172-49.114-7.771l-0.142,0.895c16.363,2.583,32.736,5.181,49.115,7.786
		L72.966,125.619z"/>
	<path d="M22.396,127.095l-0.108,0.683c1.622,0.257,3.243,0.514,4.864,0.771h-3.07c-0.623-0.099-1.245-0.197-1.868-0.296
		l-0.183,1.158c0.019,0.003,0.037,0.006,0.055,0.009l-0.046,0.292c-0.019-0.003-0.036-0.006-0.055-0.009l-0.253,1.605
		c0.019,0.003,0.037,0.006,0.056,0.009l-0.046,0.291c-0.019-0.003-0.037-0.006-0.056-0.009l-0.146,0.922
		c0.02,0.003,0.038,0.006,0.057,0.009l-0.297,1.896c-0.02-0.003-0.039-0.006-0.059-0.009l-0.145,0.921
		c0.02,0.003,0.039,0.006,0.059,0.01l-1.311,8.353c-0.021-0.004-0.043-0.007-0.063-0.011l-0.107,0.685
		c0.021,0.004,0.042,0.008,0.063,0.011l-0.075,0.476c-0.021-0.003-0.042-0.006-0.063-0.01l-0.182,1.156
		c0.021,0.004,0.043,0.007,0.064,0.01l-0.046,0.291c-0.022-0.003-0.044-0.006-0.065-0.01l-0.252,1.604
		c0.021,0.004,0.043,0.007,0.065,0.011l-0.046,0.293c-0.021-0.004-0.044-0.009-0.065-0.012l-0.146,0.922
		c0.021,0.004,0.044,0.006,0.066,0.01l-0.298,1.896c-0.022-0.004-0.045-0.007-0.067-0.011l-0.145,0.922
		c0.022,0.004,0.045,0.007,0.067,0.011l-1.311,8.354c-0.024-0.004-0.048-0.008-0.072-0.012l-0.104,0.656
		c0.024,0.004,0.049,0.008,0.073,0.012l-0.079,0.502c-0.024-0.004-0.049-0.009-0.073-0.013l-0.183,1.159
		c0.024,0.004,0.05,0.008,0.074,0.012l-0.046,0.291c-0.024-0.004-0.049-0.008-0.074-0.012l-0.253,1.604
		c0.025,0.004,0.05,0.008,0.075,0.013l-0.045,0.292c-0.025-0.004-0.051-0.008-0.076-0.012l-0.141,0.894
		c0.025,0.004,0.051,0.008,0.076,0.012l-0.302,1.925c-0.026-0.004-0.052-0.009-0.077-0.013l-0.146,0.922
		c0.026,0.005,0.052,0.009,0.077,0.013l-1.31,8.353c-0.028-0.004-0.056-0.009-0.083-0.013l-0.104,0.656
		c0.027,0.004,0.056,0.008,0.083,0.014l-0.046,0.291c-0.027-0.004-0.055-0.008-0.082-0.014l-0.216,1.369
		c16.418,2.592,32.847,5.197,49.28,7.812l0.215-1.385c-14.922-2.353-29.834-4.713-44.737-7.078h1.878
		c14.295,2.26,28.595,4.525,42.902,6.802l0.104-0.672c-12.922-2.037-25.833-4.083-38.742-6.13H112.7v-50H31.579
		C28.52,128.062,25.454,127.581,22.396,127.095z"/>
	<path d="M63.427,187.287c-16.438-2.592-32.867-5.189-49.283-7.799l-0.253,1.605c16.42,2.593,32.85,5.199,49.286,7.813
		L63.427,187.287z"/>
	<path d="M63.134,189.185c-16.439-2.594-32.871-5.189-49.289-7.799l-0.141,0.894c16.421,2.593,32.852,5.199,49.289,7.814
		L63.134,189.185z"/>
	<path d="M62.73,191.792c-16.442-2.592-32.876-5.19-49.297-7.799l-0.178,1.129c16.424,2.594,32.857,5.201,49.297,7.816
		L62.73,191.792z"/>
	<path d="M61.266,201.26c-16.44-2.604-32.88-5.207-49.321-7.812l-0.107,0.685c16.432,2.596,32.874,5.203,49.322,7.82L61.266,201.26z
		"/>
	<path d="M61.116,202.229c-16.452-2.595-32.896-5.194-49.325-7.806l-0.183,1.158c16.443,2.604,32.885,5.209,49.327,7.812
		L61.116,202.229z"/>
	<path d="M60.859,203.89c-16.454-2.596-32.898-5.194-49.33-7.807l-0.253,1.605c16.436,2.596,32.881,5.204,49.332,7.821
		L60.859,203.89z"/>
	<path d="M60.565,205.787c-16.455-2.594-32.902-5.195-49.334-7.806l-0.141,0.894c16.436,2.596,32.882,5.203,49.334,7.821
		L60.565,205.787z"/>
	<path d="M60.162,208.396c-16.458-2.596-32.907-5.195-49.342-7.807l-0.179,1.13c16.439,2.596,32.889,5.204,49.343,7.823
		L60.162,208.396z"/>
	<path d="M58.697,217.863c-16.455-2.605-32.91-5.212-49.366-7.818l-0.107,0.684c16.447,2.598,32.904,5.208,49.367,7.827
		L58.697,217.863z"/>
	<path d="M0.855,263.861c11.429,1.811,22.857,3.621,34.286,5.432h10.594c-14.883-2.349-29.758-4.703-44.623-7.063L0.855,263.861z"/>
	<path d="M0.636,265.257c8.493,1.341,16.99,2.687,25.489,4.035h5.952c-10.433-1.652-20.864-3.306-31.297-4.957L0.636,265.257z"/>
	<path d="M0.225,267.864c3.017,0.476,6.031,0.95,9.048,1.429H15c-4.879-0.772-9.757-1.547-14.633-2.321L0.225,267.864z"/>
	<path d="M86.706,36.797l-5.488-0.04c1.787,0.283,3.575,0.566,5.363,0.85l-0.074,0.474c-2.836-0.449-5.673-0.898-8.51-1.348
		l-9.648-0.071c5.979,0.947,11.959,1.895,17.938,2.842l-0.073,0.478v-0.003c-7.029-1.113-14.058-2.227-21.086-3.34l-6.226-0.045
		c9.055,1.436,18.109,2.871,27.168,4.312h0.001l-0.263,1.701c-12.866-2.028-25.729-4.061-38.582-6.099l-6.219-0.045
		c14.886,2.357,29.771,4.715,44.656,7.072l-1.287,8.322c-16.314-2.572-32.62-5.151-48.912-7.74l-0.142,0.894
		c16.296,2.572,32.603,5.159,48.914,7.754l-0.043,0.277c-16.315-2.572-32.623-5.151-48.917-7.74l-0.178,1.132
		c16.297,2.573,32.604,5.159,48.917,7.755l-0.043,0.278c-16.316-2.573-32.625-5.152-48.92-7.741l-0.257,1.633
		c16.308,2.583,32.615,5.166,48.924,7.748l-0.073,0.473c-16.309-2.583-32.616-5.166-48.925-7.749l-0.146,0.922
		c16.301,2.573,32.61,5.161,48.927,7.757l-0.263,1.7c-16.321-2.573-32.635-5.153-48.934-7.743l-0.141,0.895
		c16.303,2.573,32.615,5.161,48.934,7.757l-1.291,8.34c-16.33-2.574-32.65-5.155-48.958-7.746l-0.141,0.895
		c16.311,2.575,32.632,5.164,48.958,7.762l-0.043,0.278c-16.331-2.575-32.652-5.156-48.961-7.748l-0.178,1.13
		c16.312,2.575,32.634,5.165,48.963,7.763l-0.043,0.277c-16.332-2.575-32.656-5.157-48.967-7.748l-0.257,1.632
		c16.323,2.586,32.646,5.171,48.97,7.756l-0.073,0.474l-48.97-7.757l-0.146,0.921c16.315,2.576,32.641,5.166,48.972,7.765
		l-0.263,1.699c-16.336-2.576-32.664-5.158-48.979-7.75l-0.141,0.894c16.317,2.576,32.645,5.166,48.979,7.765l-1.29,8.341
		c-16.345-2.577-32.682-5.161-49.005-7.754l-0.141,0.894c16.326,2.578,32.662,5.169,49.005,7.769l-0.042,0.277
		C62.71,83.67,46.373,81.087,30.05,78.493l-0.179,1.132c16.327,2.578,32.665,5.17,49.008,7.77l0.084-0.541h46.408v-50L86.706,36.797
		z"/>
	<path d="M58.548,218.832c-16.467-2.598-32.926-5.199-49.37-7.812l-0.183,1.159c16.457,2.606,32.914,5.213,49.372,7.819
		l-0.073,0.476c-16.458-2.606-32.916-5.214-49.373-7.82l-0.258,1.634c16.45,2.598,32.91,5.207,49.377,7.827l-0.043,0.275
		c0,0-32.932-5.199-49.38-7.812l-0.141,0.895c16.451,2.597,32.913,5.208,49.38,7.828L57.594,225
		c-16.473-2.598-32.937-5.201-49.388-7.813l-0.145,0.922c16.463,2.606,32.926,5.215,49.389,7.822l-1.32,8.536
		c-16.471-2.607-32.941-5.217-49.412-7.825l-0.108,0.685c16.462,2.601,32.935,5.213,49.413,7.834l-0.048,0.311l0.005-0.033
		c-16.482-2.6-32.956-5.203-49.416-7.818l-0.182,1.156c16.473,2.609,32.945,5.219,49.418,7.827l-0.074,0.476
		c-16.473-2.608-32.945-5.219-49.419-7.826l-0.224,1.422c16.475,2.608,32.948,5.218,49.423,7.826l-0.077,0.492
		c-16.484-2.6-32.962-5.205-49.425-7.82l-0.142,0.895c16.467,2.602,32.943,5.214,49.426,7.837l-0.263,1.699
		c-16.487-2.601-32.967-5.205-49.433-7.821l-0.145,0.92c16.479,2.61,32.955,5.221,49.434,7.83l-1.286,8.322
		c-16.496-2.602-32.984-5.208-49.458-7.825l-0.141,0.896c16.478,2.602,32.964,5.217,49.458,7.842l-0.043,0.271
		c-16.497-2.602-32.986-5.209-49.461-7.826l-0.178,1.133c16.479,2.602,32.967,5.218,49.461,7.842l-0.076,0.496
		c-16.488-2.611-32.976-5.223-49.465-7.834l-0.224,1.422c16.49,2.611,32.979,5.225,49.469,7.835l-0.073,0.476
		c-16.49-2.611-32.98-5.225-49.47-7.836l-0.146,0.92c16.482,2.604,32.974,5.219,49.471,7.844l-0.261,1.699
		c-16.504-2.603-32.998-5.211-49.479-7.828l-0.146,0.923c16.493,2.61,32.986,5.224,49.479,7.836l-1.286,8.317
		c-16.512-2.604-33.014-5.213-49.504-7.834l-0.141,0.895c16.493,2.604,32.995,5.222,49.504,7.849l-0.042,0.276
		c-16.512-2.604-33.016-5.215-49.506-7.833l-0.179,1.131c15.459,2.44,30.926,4.894,46.399,7.354h3.185l0,0.004h41.963v-50H58.477
		L58.548,218.832z"/>
</g>
</svg>
